<svg xmlns="http://www.w3.org/2000/svg" viewBox="0 0 130.04 130.04"><defs><style>.cls-1{fill:#fff;}.cls-2{fill:#f14e32;}</style></defs><title>Recurso 2</title><g id="Capa_2" data-name="Capa 2"><g id="Layer_1" data-name="Layer 1"><rect class="cls-1" width="130.04" height="130.04"/><path class="cls-2" d="M109.57,65,69.45,24.88a5.92,5.92,0,0,0-8.37,0l-8.33,8.33L63.32,43.78a7,7,0,0,1,8.9,9L82.4,62.93a7,7,0,1,1-4.22,4l-9.5-9.5v25a7.31,7.31,0,0,1,1.87,1.34,7,7,0,1,1-7.65-1.54V57a6.83,6.83,0,0,1-2.31-1.54,7.05,7.05,0,0,1-1.52-7.69L48.66,37.31,21.15,64.81a5.93,5.93,0,0,0,0,8.38L61.27,113.3a5.92,5.92,0,0,0,8.37,0l39.93-39.93A5.92,5.92,0,0,0,109.57,65Z"/></g></g></svg>