<svg xmlns="http://www.w3.org/2000/svg" xmlns:xlink="http://www.w3.org/1999/xlink" viewBox="0 0 601 601"><defs><style>.cls-1,.cls-6{fill:url(#linear-gradient);}.cls-1{clip-rule:evenodd;}.cls-2{fill:#fff;}.cls-3,.cls-5{fill:#679e63;}.cls-4{fill:#333;}.cls-4,.cls-5,.cls-6{fill-rule:evenodd;}.cls-7{clip-path:url(#clip-path);}.cls-8{fill:none;}.cls-9{fill:url(#linear-gradient-3);}.cls-10{fill:url(#linear-gradient-4);}.cls-11{fill:url(#linear-gradient-5);}.cls-12{fill:url(#linear-gradient-6);}.cls-13{fill:url(#linear-gradient-7);}.cls-14{fill:url(#linear-gradient-8);}</style><linearGradient id="linear-gradient" x1="259.2" y1="245.21" x2="221.14" y2="322.87" gradientUnits="userSpaceOnUse"><stop offset="0" stop-color="#3f873f"/><stop offset="0.33" stop-color="#3f8b3d"/><stop offset="0.64" stop-color="#3e9637"/><stop offset="0.93" stop-color="#3da92e"/><stop offset="1" stop-color="#3dae2b"/></linearGradient><clipPath id="clip-path"><path class="cls-1" d="M244.62,227.11a5.09,5.09,0,0,0-5.09,0L197.4,251.42a5.09,5.09,0,0,0-2.55,4.41V304.5a5.08,5.08,0,0,0,2.55,4.4l42.13,24.34a5.09,5.09,0,0,0,5.09,0l42.13-24.34a5.09,5.09,0,0,0,2.54-4.4V255.83a5.09,5.09,0,0,0-2.55-4.41Z"/></clipPath><linearGradient id="linear-gradient-3" x1="235.66" y1="285.85" x2="342.46" y2="206.94" gradientUnits="userSpaceOnUse"><stop offset="0.14" stop-color="#3f873f"/><stop offset="0.4" stop-color="#529f44"/><stop offset="0.71" stop-color="#63b649"/><stop offset="0.91" stop-color="#6abf4b"/></linearGradient><linearGradient id="linear-gradient-4" x1="193.36" y1="218.33" x2="290.78" y2="218.33" gradientUnits="userSpaceOnUse"><stop offset="0.09" stop-color="#6abf4b"/><stop offset="0.29" stop-color="#63b649"/><stop offset="0.6" stop-color="#529f44"/><stop offset="0.86" stop-color="#3f873f"/></linearGradient><linearGradient id="linear-gradient-5" x1="193.36" y1="280.15" x2="290.78" y2="280.15" xlink:href="#linear-gradient-4"/><linearGradient id="linear-gradient-6" x1="193.36" y1="307.96" x2="290.78" y2="307.96" xlink:href="#linear-gradient-4"/><linearGradient id="linear-gradient-7" x1="193.36" y1="320.53" x2="290.78" y2="320.53" xlink:href="#linear-gradient-4"/><linearGradient id="linear-gradient-8" x1="304.97" y1="242.91" x2="244.89" y2="365.48" xlink:href="#linear-gradient"/></defs><title>Recurso 1</title><g id="Capa_2" data-name="Capa 2"><g id="Capa_2-2" data-name="Capa 2"><rect class="cls-2" width="601" height="601"/></g><g id="Layer_1" data-name="Layer 1"><path class="cls-3" d="M297.45,435.44a8.38,8.38,0,0,1-4.19-1.12l-13.34-7.89c-2-1.11-1-1.51-.36-1.74a26.25,26.25,0,0,0,6-2.74,1,1,0,0,1,1,.08l10.24,6.08a1.3,1.3,0,0,0,1.24,0L338,405.05a1.26,1.26,0,0,0,.61-1.08v-46.1a1.28,1.28,0,0,0-.62-1.1l-39.93-23a1.23,1.23,0,0,0-1.23,0l-39.93,23a1.28,1.28,0,0,0-.63,1.1V404a1.22,1.22,0,0,0,.63,1.07l10.94,6.32c5.94,3,9.58-.53,9.58-4V361.8a1.15,1.15,0,0,1,1.16-1.15h5.06a1.15,1.15,0,0,1,1.16,1.15v45.52c0,7.93-4.31,12.47-11.83,12.47-2.31,0-4.12,0-9.2-2.5l-10.48-6a8.46,8.46,0,0,1-4.19-7.29v-46.1a8.42,8.42,0,0,1,4.19-7.28l39.95-23.09a8.76,8.76,0,0,1,8.4,0l39.95,23.09a8.43,8.43,0,0,1,4.19,7.28V404a8.47,8.47,0,0,1-4.19,7.29l-39.95,23.06A8.4,8.4,0,0,1,297.45,435.44Z"/><path class="cls-3" d="M309.79,403.68c-17.48,0-21.14-8-21.14-14.75a1.14,1.14,0,0,1,1.15-1.15H295a1.15,1.15,0,0,1,1.15,1c.78,5.26,3.1,7.92,13.67,7.92,8.42,0,12-1.91,12-6.37,0-2.58-1-4.49-14.09-5.77C296.77,383.45,290,381,290,372.29c0-8.06,6.79-12.87,18.18-12.87,12.8,0,19.13,4.44,19.93,14a1.15,1.15,0,0,1-.3.88,1.17,1.17,0,0,1-.85.37h-5.18a1.15,1.15,0,0,1-1.12-.9c-1.25-5.53-4.27-7.3-12.48-7.3-9.19,0-10.26,3.2-10.26,5.6,0,2.9,1.26,3.75,13.67,5.39s18.11,3.92,18.11,12.55S322.45,403.68,309.79,403.68Z"/><path class="cls-3" d="M367.4,355.33a7.7,7.7,0,1,1-7.7-7.7A7.72,7.72,0,0,1,367.4,355.33Zm-14.16,0a6.46,6.46,0,1,0,6.44-6.44A6.46,6.46,0,0,0,353.24,355.31Zm3.57-4.3h3c1,0,3,0,3,2.28a2,2,0,0,1-1.63,2.12c1.18.08,1.26.86,1.42,2a8.51,8.51,0,0,0,.45,2.28h-1.83c0-.41-.33-2.61-.33-2.73-.12-.49-.29-.73-.9-.73h-1.5v3.46h-1.67Zm1.63,3.79h1.34a1.16,1.16,0,0,0,1.31-1.22c0-1.18-.82-1.18-1.27-1.18h-1.38Z"/><path class="cls-4" d="M173.74,255.07a5.11,5.11,0,0,0-2.56-4.45l-42.35-24.37a5.11,5.11,0,0,0-2.33-.68h-.44a5.18,5.18,0,0,0-2.34.68L81.37,250.62a5.14,5.14,0,0,0-2.56,4.45l.09,65.63a2.51,2.51,0,0,0,1.28,2.21,2.46,2.46,0,0,0,2.54,0l25.17-14.41a5.17,5.17,0,0,0,2.56-4.44V273.39A5.1,5.1,0,0,1,113,269l10.72-6.18a5.1,5.1,0,0,1,2.57-.68,5,5,0,0,1,2.54.68L139.55,269a5.1,5.1,0,0,1,2.55,4.42v30.67a5.17,5.17,0,0,0,2.57,4.44l25.16,14.41a2.5,2.5,0,0,0,2.56,0,2.56,2.56,0,0,0,1.27-2.21Z"/><path class="cls-4" d="M377.54,164.84a2.56,2.56,0,0,0-3.8,2.23v65a1.82,1.82,0,0,1-.9,1.56,1.79,1.79,0,0,1-1.79,0l-10.61-6.12a5.1,5.1,0,0,0-5.11,0L313,252a5.09,5.09,0,0,0-2.56,4.43v48.92a5.12,5.12,0,0,0,2.56,4.43l42.37,24.47a5.12,5.12,0,0,0,5.11,0l42.38-24.47a5.14,5.14,0,0,0,2.56-4.43V183.38a5.11,5.11,0,0,0-2.63-4.47Zm-3.93,124.4a1.27,1.27,0,0,1-.64,1.11l-14.55,8.39a1.32,1.32,0,0,1-1.28,0l-14.54-8.39a1.27,1.27,0,0,1-.64-1.11v-16.8a1.28,1.28,0,0,1,.63-1.1l14.55-8.41a1.27,1.27,0,0,1,1.28,0L373,271.34a1.27,1.27,0,0,1,.64,1.1Z"/><path class="cls-4" d="M518.63,272a5.1,5.1,0,0,0,2.55-4.42V255.73a5.12,5.12,0,0,0-2.55-4.43l-42.1-24.44a5.14,5.14,0,0,0-5.13,0l-42.35,24.46a5.09,5.09,0,0,0-2.56,4.43v48.9a5.12,5.12,0,0,0,2.58,4.44l42.1,24a5.13,5.13,0,0,0,5,0L501.64,319a2.56,2.56,0,0,0,0-4.46L459.05,290a2.57,2.57,0,0,1-1.29-2.22V272.48a2.55,2.55,0,0,1,1.28-2.21l13.27-7.65a2.53,2.53,0,0,1,2.55,0l13.28,7.65a2.55,2.55,0,0,1,1.28,2.21v12.06a2.55,2.55,0,0,0,3.84,2.21Z"/><path class="cls-5" d="M473.34,269.71a1,1,0,0,1,1,0l8.13,4.69a1,1,0,0,1,.5.86v9.38a1,1,0,0,1-.5.85l-8.13,4.7a1,1,0,0,1-1,0l-8.12-4.7a1,1,0,0,1-.49-.85v-9.38a1,1,0,0,1,.49-.86Z"/><path class="cls-6" d="M244.62,227.11a5.09,5.09,0,0,0-5.09,0L197.4,251.42a5.09,5.09,0,0,0-2.55,4.41V304.5a5.08,5.08,0,0,0,2.55,4.4l42.13,24.34a5.09,5.09,0,0,0,5.09,0l42.13-24.34a5.09,5.09,0,0,0,2.54-4.4V255.83a5.09,5.09,0,0,0-2.55-4.41Z"/><g class="cls-7"><path class="cls-8" d="M239.44,227.11l-42.22,24.31a5.27,5.27,0,0,0-2.72,4.41V304.5a4.9,4.9,0,0,0,1.31,3.23l47.44-81.15A5.19,5.19,0,0,0,239.44,227.11Z"/><path class="cls-8" d="M243.49,333.73a5.07,5.07,0,0,0,1.18-.49l42.18-24.34a5.2,5.2,0,0,0,2.65-4.4V255.83a5.05,5.05,0,0,0-1.54-3.54Z"/><path class="cls-9" d="M286.83,251.42l-42.25-24.31a5.07,5.07,0,0,0-1.33-.53l-47.44,81.15a5.91,5.91,0,0,0,1.42,1.17l42.33,24.34a5.15,5.15,0,0,0,3.93.49L288,252.29A6,6,0,0,0,286.83,251.42Z"/><path class="cls-8" d="M289.5,304.5V255.83a5.22,5.22,0,0,0-2.67-4.41l-42.25-24.31a5,5,0,0,0-1.56-.57l46.32,79.12A4.51,4.51,0,0,0,289.5,304.5Z"/><path class="cls-8" d="M197.22,251.42a5.27,5.27,0,0,0-2.72,4.41V304.5a5.28,5.28,0,0,0,2.73,4.4l42.33,24.34a5.14,5.14,0,0,0,3.25.63l-45.33-82.59Z"/><polygon class="cls-10" points="238.13 218.17 237.55 218.5 238.32 218.5 238.13 218.17"/><path class="cls-11" d="M286.85,308.9a5.32,5.32,0,0,0,2.49-3.24L243,226.54a5.16,5.16,0,0,0-3.58.57l-42,24.17,45.33,82.59a5.19,5.19,0,0,0,1.86-.63Z"/><polygon class="cls-12" points="290.78 308.12 290.5 307.64 290.5 308.28 290.78 308.12"/><path class="cls-13" d="M286.85,308.9l-42.18,24.34a5.19,5.19,0,0,1-1.86.63l.84,1.53,46.85-27.12v-.64l-1.16-2A5.32,5.32,0,0,1,286.85,308.9Z"/><path class="cls-14" d="M286.85,308.9l-42.18,24.34a5.19,5.19,0,0,1-1.86.63l.84,1.53,46.85-27.12v-.64l-1.16-2A5.32,5.32,0,0,1,286.85,308.9Z"/></g></g></g></svg>